<svg xmlns="http://www.w3.org/2000/svg" viewBox="0 0 1200 760" role="img" aria-label="Grimwater County Map"><defs><linearGradient id="g" x1="0" x2="1"><stop stop-color="#121315"/><stop offset="1" stop-color="#24201a"/></linearGradient></defs><rect width="1200" height="760" fill="url(#g)"/><rect x="24" y="24" width="1152" height="712" rx="22" fill="none" stroke="#a77a3f" stroke-width="4" opacity=".65"/><path d="M120 520 C280 430 380 610 530 485 S790 380 1040 500" fill="none" stroke="#416a72" stroke-width="18" opacity=".55"/><g stroke="#6f6251" opacity=".6"><path d="M 60 90 L 160 680" /><path d="M 180 90 L 260 680" /><path d="M 300 90 L 360 680" /><path d="M 420 90 L 460 680" /><path d="M 540 90 L 560 680" /><path d="M 660 90 L 660 680" /><path d="M 780 90 L 760 680" /><path d="M 900 90 L 860 680" /><path d="M 1020 90 L 960 680" /></g><text x="600" y="360" text-anchor="middle" fill="#d1ad6d" font-family="Georgia,serif" font-size="54" font-weight="bold">Grimwater County Map</text><text x="600" y="420" text-anchor="middle" fill="#a8987e" font-family="Arial,sans-serif" font-size="22">GRIMWATER COUNTY</text></svg>